<?xml version="1.0" encoding="iso-8859-1"?>
<!-- Uploaded to: SVG Repo, www.svgrepo.com, Generator: SVG Repo Mixer Tools -->
<svg version="1.1" id="Capa_1" xmlns="http://www.w3.org/2000/svg" xmlns:xlink="http://www.w3.org/1999/xlink" 
	 viewBox="0 0 464 464" xml:space="preserve">
<g>
	<path style="fill:#FFD76E;" d="M16,396c0,17.673,14.327,32,32,32h368c17.673,0,32-14.327,32-32V124H16V396z M195.586,196
		c14.214,0,27.083,5.833,36.414,15.262c9.33-9.43,22.199-15.262,36.414-15.262c28.49,0,51.586,23.419,51.586,52.308
		c0,40-46.277,88.077-88,107.692c-41.723-19.615-88-67.692-88-107.692C144,219.419,167.096,196,195.586,196z"/>
	<path style="fill:#D2555D;" d="M448,60h-8v16c0,4.418-3.582,8-8,8s-8-3.582-8-8V60h-24v16c0,4.418-3.582,8-8,8s-8-3.582-8-8V60h-24
		v16c0,4.418-3.582,8-8,8s-8-3.582-8-8V60h-24v16c0,4.418-3.582,8-8,8s-8-3.582-8-8V60h-24v16c0,4.418-3.582,8-8,8s-8-3.582-8-8V60
		h-24v16c0,4.418-3.582,8-8,8s-8-3.582-8-8V60h-24v16c0,4.418-3.582,8-8,8s-8-3.582-8-8V60h-24v16c0,4.418-3.582,8-8,8s-8-3.582-8-8
		V60h-24v16c0,4.418-3.582,8-8,8s-8-3.582-8-8V60H80v16c0,4.418-3.582,8-8,8s-8-3.582-8-8V60H40v16c0,4.418-3.582,8-8,8
		s-8-3.582-8-8V60h-8C7.163,60,0,67.164,0,76v16c0,8.837,7.163,16,16,16h432c8.836,0,16-7.163,16-16V76
		C464,67.164,456.837,60,448,60z"/>
	<path style="fill:#DEE1E9;" d="M32,84c4.418,0,8-3.582,8-8V60V44c0-4.418-3.582-8-8-8s-8,3.582-8,8v16v16
		C24,80.418,27.582,84,32,84z"/>
	<path style="fill:#DEE1E9;" d="M72,84c4.418,0,8-3.582,8-8V60V44c0-4.418-3.582-8-8-8s-8,3.582-8,8v16v16
		C64,80.418,67.582,84,72,84z"/>
	<path style="fill:#DEE1E9;" d="M112,84c4.418,0,8-3.582,8-8V60V44c0-4.418-3.582-8-8-8s-8,3.582-8,8v16v16
		C104,80.418,107.582,84,112,84z"/>
	<path style="fill:#DEE1E9;" d="M152,84c4.418,0,8-3.582,8-8V60V44c0-4.418-3.582-8-8-8s-8,3.582-8,8v16v16
		C144,80.418,147.582,84,152,84z"/>
	<path style="fill:#DEE1E9;" d="M192,84c4.418,0,8-3.582,8-8V60V44c0-4.418-3.582-8-8-8s-8,3.582-8,8v16v16
		C184,80.418,187.582,84,192,84z"/>
	<path style="fill:#DEE1E9;" d="M232,84c4.418,0,8-3.582,8-8V60V44c0-4.418-3.582-8-8-8s-8,3.582-8,8v16v16
		C224,80.418,227.582,84,232,84z"/>
	<path style="fill:#DEE1E9;" d="M272,84c4.418,0,8-3.582,8-8V60V44c0-4.418-3.582-8-8-8s-8,3.582-8,8v16v16
		C264,80.418,267.582,84,272,84z"/>
	<path style="fill:#DEE1E9;" d="M312,84c4.418,0,8-3.582,8-8V60V44c0-4.418-3.582-8-8-8s-8,3.582-8,8v16v16
		C304,80.418,307.582,84,312,84z"/>
	<path style="fill:#DEE1E9;" d="M352,84c4.418,0,8-3.582,8-8V60V44c0-4.418-3.582-8-8-8s-8,3.582-8,8v16v16
		C344,80.418,347.582,84,352,84z"/>
	<path style="fill:#DEE1E9;" d="M392,84c4.418,0,8-3.582,8-8V60V44c0-4.418-3.582-8-8-8s-8,3.582-8,8v16v16
		C384,80.418,387.582,84,392,84z"/>
	<path style="fill:#DEE1E9;" d="M432,84c4.418,0,8-3.582,8-8V60V44c0-4.418-3.582-8-8-8s-8,3.582-8,8v16v16
		C424,80.418,427.582,84,432,84z"/>
	<rect x="16" y="108" style="fill:#FFB96E;" width="432" height="16"/>
	<path style="fill:#E86464;" d="M232,356c41.723-19.615,88-67.692,88-107.692C320,219.419,296.904,196,268.414,196
		c-14.214,0-27.083,5.833-36.414,15.262c-9.33-9.43-22.199-15.262-36.414-15.262C167.096,196,144,219.419,144,248.308
		C144,288.308,190.277,336.385,232,356z"/>
</g>
</svg>